<svg width="277" height="76" fill="none" xmlns="http://www.w3.org/2000/svg"><g clip-path="url(#clip0)"><path d="M32.326 46.644a16.746 16.746 0 00-5.1-12.995 20.913 20.913 0 00-14.633-4.672H0v35.687h2.824a5.067 5.067 0 004.744-3.14c.256-.622.387-1.29.384-1.964V35.92h4.437a12.518 12.518 0 018.998 2.834 10.732 10.732 0 012.946 8.084 10.48 10.48 0 01-2.932 8.018c-.053.05-.114.091-.169.14a11.911 11.911 0 01-8.217 2.616H8.874v.86a6.456 6.456 0 002.054 4.307 6.439 6.439 0 004.448 1.715c.21 0 .411 0 .613-.028.096 0 .185-.022.276-.033a18.314 18.314 0 0011.09-4.628 17.546 17.546 0 004.97-13.16zM61.04 33.699a4.564 4.564 0 011.836-7.616 4.55 4.55 0 015.36 2.19 4.567 4.567 0 01-1.115 5.69A4.552 4.552 0 0164.226 35a4.327 4.327 0 01-3.186-1.3zm7.005 3.497h-7.648v27.468h7.648V37.196zm10.663 27.468h-7.645V26.787h7.645v37.877z" fill="#212322"/><path d="M86.516 75.488a11.114 11.114 0 01-7.598-3.268l3.467-5.668a5.73 5.73 0 003.979 1.891 2.226 2.226 0 001.833-1.047 3.694 3.694 0 00.765-2.212c0-.784-3.535-10.11-10.605-27.98h8.159l6.679 17.106 6.679-17.105h8.145l-12.748 32.37a9.12 9.12 0 01-3.493 4.365 9.408 9.408 0 01-5.262 1.548z" fill="#212322"/><path d="M116.826 36.099a3.079 3.079 0 00-1.148 2.488 2.822 2.822 0 001.402 2.488 25.565 25.565 0 006.478 2.17 18.215 18.215 0 017.877 3.753 9.278 9.278 0 012.805 7.302 9.65 9.65 0 01-3.589 7.785 14.316 14.316 0 01-9.46 2.988 21.868 21.868 0 01-15.243-6.281l4.74-5.82a16.867 16.867 0 0010.658 5.054 5.586 5.586 0 003.443-.945 3.042 3.042 0 001.251-2.552 2.982 2.982 0 00-1.326-2.552 17.322 17.322 0 00-5.246-1.913 22.812 22.812 0 01-9.111-3.854 9.104 9.104 0 01-2.882-7.465 9.247 9.247 0 013.644-7.835 14.65 14.65 0 019.111-2.765c2.432.009 4.845.423 7.14 1.225a19.147 19.147 0 016.221 3.472l-4.028 5.823a15.68 15.68 0 00-9.584-3.525 4.794 4.794 0 00-3.153.959z" fill="#212322"/><path d="M163.313 50.932a13.59 13.59 0 01-4.141 10.058 15.222 15.222 0 01-20.752 0 14.34 14.34 0 010-20.141 15.154 15.154 0 0120.752 0 13.678 13.678 0 014.141 10.083zm-21.312 0a7.885 7.885 0 001.911 5.488 6.724 6.724 0 004.895 2.119 6.708 6.708 0 004.895-2.12 7.885 7.885 0 001.911-5.487 7.981 7.981 0 00-1.911-5.513 6.666 6.666 0 00-4.895-2.145 6.66 6.66 0 00-4.895 2.145 7.977 7.977 0 00-1.911 5.513z" fill="#212322"/><path d="M178.002 58.283a8.763 8.763 0 006.883-3.829l4.536 5.104a15.77 15.77 0 01-11.472 5.515 14.86 14.86 0 01-10.425-3.906 14.364 14.364 0 01-4.257-10.247 14.36 14.36 0 014.306-10.226 14.625 14.625 0 0110.216-3.956c2.057.017 4.092.433 5.991 1.224a15.146 15.146 0 015.329 3.628l-3.976 5.208a9.48 9.48 0 00-7.037-3.317 7.45 7.45 0 00-5.175 1.966 6.996 6.996 0 00-2.167 5.463 6.91 6.91 0 002.167 5.435 7.36 7.36 0 005.081 1.938zM190.978 33.7a4.566 4.566 0 01-.619-5.76 4.546 4.546 0 017.812.339 4.566 4.566 0 01-1.114 5.684A4.546 4.546 0 01194.165 35a4.321 4.321 0 01-3.187-1.302zm7.011 30.964h-7.648V37.196h7.648v27.468zm36.795 0h-7.648V26.787h7.648v37.877zM221.187 39.24a12.76 12.76 0 00-8.159-2.489 20.434 20.434 0 00-12.339 3.932l3.415 4.952a13.708 13.708 0 013.747-1.966 12.545 12.545 0 014.205-.791c3.094 0 4.641 1.464 4.641 4.39v.152h-5.71a14.617 14.617 0 00-8.363 2.093 7.125 7.125 0 00-3.059 6.307 8.415 8.415 0 002.957 6.737 10.867 10.867 0 007.317 2.527 8.977 8.977 0 007.25-3.65l.066-.08v.294a4.457 4.457 0 004.261 3.024h2.932V47.161a9.489 9.489 0 00-3.161-7.922zm-4.54 14.957a4.067 4.067 0 01-1.554 3.345 5.569 5.569 0 01-3.589 1.252 5.298 5.298 0 01-3.137-.79 2.623 2.623 0 01-1.104-2.273c0-1.906 1.529-2.858 4.589-2.858h4.793l.002 1.324zM54.425 39.24a12.75 12.75 0 00-8.159-2.489 20.43 20.43 0 00-12.339 3.932l3.416 4.952a13.664 13.664 0 013.746-1.966 12.536 12.536 0 014.205-.79c3.093 0 4.639 1.463 4.639 4.39v.152h-5.71a14.618 14.618 0 00-8.363 2.092 7.125 7.125 0 00-3.06 6.307 8.423 8.423 0 002.958 6.737 10.867 10.867 0 007.316 2.527 8.995 8.995 0 007.295-3.699c0 .036.014.07.025.102a4.457 4.457 0 004.31 3.188h2.877V47.163a9.486 9.486 0 00-3.156-7.923zm-4.54 14.957a4.072 4.072 0 01-1.554 3.345 5.566 5.566 0 01-3.589 1.252 5.292 5.292 0 01-3.136-.79 2.627 2.627 0 01-1.105-2.273c0-1.906 1.53-2.858 4.589-2.858h4.79l.006 1.324z" fill="#212322"/><path d="M257.756 36.738c10.131 0 18.344-8.224 18.344-18.37C276.1 8.225 267.887 0 257.756 0c-10.131 0-18.344 8.224-18.344 18.369s8.213 18.369 18.344 18.369z" fill="#FFA400"/><path d="M270.023 31.333h-.094a2.756 2.756 0 01-1.996-.83 2.273 2.273 0 01-.171-.199 9.322 9.322 0 01-4.929 1.294h-.477a9.236 9.236 0 01-4.142-1.106 8.893 8.893 0 01-1.974-1.482 8.634 8.634 0 01-2.623-6.386 8.74 8.74 0 011.546-5.126 9.489 9.489 0 011.08-1.28 8.957 8.957 0 016.59-2.613c.315 0 .619 0 .92.039a9.1 9.1 0 013.404.929v-7.52h4.904v22.825a18.392 18.392 0 002.183-19.56 18.361 18.361 0 00-6.877-7.59 18.328 18.328 0 00-19.654.278 18.36 18.36 0 00-6.66 7.782 18.392 18.392 0 002.735 19.491l2.242-11.263h6.825l-3.158 15.87a18.322 18.322 0 0021.058-3.537l-.732-.016zm-19.581-14.344a3.762 3.762 0 01-3.271-5.553 3.759 3.759 0 014.404-1.807 3.762 3.762 0 011.562 6.254 3.671 3.671 0 01-2.695 1.106z" fill="#005F61"/><path d="M262.828 17.747a4.354 4.354 0 00-1.513.26c-.616.23-1.164.61-1.596 1.105a5.075 5.075 0 00-1.218 3.506 4.98 4.98 0 001.218 3.484 3.99 3.99 0 003.109 1.346c.326.001.652-.032.972-.1a3.882 3.882 0 002.137-1.246 4.984 4.984 0 001.217-3.484 5.058 5.058 0 00-1.217-3.505 3.978 3.978 0 00-3.109-1.366z" fill="#005F61"/></g><defs><clipPath id="clip0"><path fill="#fff" d="M0 0h276.1v75.488H0z"/></clipPath></defs></svg>