<svg width="321" height="64" fill="none" xmlns="http://www.w3.org/2000/svg"><g clip-path="url(#clip0)" fill="#F0F0F0"><path d="M50.91 52.364H13.094c-.802 0-1.453.65-1.455 1.453l-.004 4.355a5.782 5.782 0 001.7 4.12A5.783 5.783 0 0017.455 64h29.091a5.824 5.824 0 005.819-5.818v-4.364c0-.804-.65-1.454-1.455-1.454zM45.763 0c-2.984 0-6.496.659-10.155 1.905a1.455 1.455 0 00-.183 2.676 51.37 51.37 0 012.906 1.565c.692.407.925 1.3.52 1.992-.39.666-1.318.916-1.991.52-6.14-3.6-13.103-5.749-18.622-5.749C6.818 2.91 0 9.435 0 20.364c0 8.01 5.703 13.742 11.658 16.122l-.012 11.513a1.454 1.454 0 001.455 1.456h37.808c.804 0 1.455-.651 1.455-1.455V33.568C58.307 31.185 64 25.453 64 17.455 64 6.525 57.182 0 45.763 0zm-5.036 30.546c-2.29 0-3.534.392-4.737.77-1.065.337-2.166.684-3.747.684-1.546 0-2.99-.585-4.52-1.205-1.974-.798-4.213-1.704-7.36-1.704a1.454 1.454 0 110-2.91c3.712 0 6.34 1.065 8.45 1.918 1.37.555 2.451.992 3.43.992 1.132 0 1.9-.242 2.872-.548 1.281-.404 2.874-.907 5.612-.907a1.454 1.454 0 110 2.91z"/></g><path d="M138.35 15.95h9.4L135.9 51h-9.4l-6.65-23.85L113.1 51h-9.4L91.9 15.95h9.85l6.9 25.6 6.9-25.6h8.95l7 25.6 6.85-25.6zm21.44 7.7c4.4 0 7.784 1.3 10.15 3.9 2.367 2.6 3.55 6.167 3.55 10.7 0 .7-.016 1.233-.05 1.6h-18.8c.434 1.533 1.184 2.717 2.25 3.55 1.067.8 2.367 1.2 3.9 1.2a8.266 8.266 0 003.35-.7c1.1-.467 2.1-1.15 3-2.05l4.65 4.65c-1.4 1.567-3.1 2.767-5.1 3.6-1.966.8-4.2 1.2-6.7 1.2-2.9 0-5.433-.567-7.6-1.7-2.166-1.133-3.833-2.733-5-4.8-1.133-2.067-1.7-4.467-1.7-7.2 0-2.767.584-5.2 1.75-7.3 1.167-2.133 2.817-3.767 4.95-4.9 2.134-1.167 4.6-1.75 7.4-1.75zm5.05 11.45c0-1.567-.466-2.817-1.4-3.75-.9-.967-2.1-1.45-3.6-1.45-1.4 0-2.583.467-3.55 1.4-.933.933-1.55 2.2-1.85 3.8h10.4zM199.067 51l-5.1-9.7h-6.8V51h-9.15V15.95h15.75c4.634 0 8.217 1.083 10.75 3.25 2.567 2.133 3.85 5.15 3.85 9.05 0 2.633-.533 4.917-1.6 6.85-1.066 1.9-2.616 3.383-4.65 4.45l7.3 11.45h-10.35zm-11.9-17h6.65c1.867 0 3.3-.467 4.3-1.4 1.034-.933 1.55-2.283 1.55-4.05 0-1.7-.516-3-1.55-3.9-1-.933-2.433-1.4-4.3-1.4h-6.65V34zm38.932-10.35c4.4 0 7.783 1.3 10.15 3.9 2.366 2.6 3.55 6.167 3.55 10.7 0 .7-.017 1.233-.05 1.6h-18.8c.433 1.533 1.183 2.717 2.25 3.55 1.066.8 2.366 1.2 3.9 1.2a8.273 8.273 0 003.35-.7c1.1-.467 2.1-1.15 3-2.05l4.65 4.65c-1.4 1.567-3.1 2.767-5.1 3.6-1.967.8-4.2 1.2-6.7 1.2-2.9 0-5.434-.567-7.6-1.7-2.167-1.133-3.834-2.733-5-4.8-1.134-2.067-1.7-4.467-1.7-7.2 0-2.767.583-5.2 1.75-7.3 1.166-2.133 2.816-3.767 4.95-4.9 2.133-1.167 4.6-1.75 7.4-1.75zm5.05 11.45c0-1.567-.467-2.817-1.4-3.75-.9-.967-2.1-1.45-3.6-1.45-1.4 0-2.584.467-3.55 1.4-.934.933-1.55 2.2-1.85 3.8h10.4zm31.227-2.6c-3.5-1.833-6.367-2.75-8.6-2.75-.767 0-1.384.15-1.85.45-.467.267-.7.683-.7 1.25 0 .6.366 1.083 1.1 1.45.733.367 1.9.767 3.5 1.2 1.933.567 3.533 1.133 4.8 1.7 1.3.533 2.416 1.367 3.35 2.5.933 1.1 1.4 2.55 1.4 4.35 0 2.733-1.067 4.883-3.2 6.45-2.1 1.533-4.85 2.3-8.25 2.3-2.3 0-4.5-.317-6.6-.95-2.1-.667-3.967-1.633-5.6-2.9l2.8-5.75a20.604 20.604 0 004.8 2.5c1.7.567 3.3.85 4.8.85.866 0 1.55-.133 2.05-.4.533-.3.8-.717.8-1.25 0-.667-.384-1.183-1.15-1.55-.734-.367-1.9-.767-3.5-1.2-1.9-.567-3.467-1.117-4.7-1.65-1.234-.567-2.317-1.4-3.25-2.5-.9-1.1-1.35-2.533-1.35-4.3 0-2.733 1.033-4.867 3.1-6.4 2.066-1.567 4.733-2.35 8-2.35 1.966 0 3.9.267 5.8.8a21.398 21.398 0 015.45 2.35l-3 5.8zm25.38 17.1c-1 .567-2.15 1.017-3.45 1.35-1.3.3-2.617.45-3.95.45-2.667 0-4.833-.767-6.5-2.3-1.633-1.533-2.45-3.65-2.45-6.35v-11.6h-3.75v-5.9h3.75v-7.5h8.85v7.5h7v5.9h-7v10.2c0 1.9.783 2.85 2.35 2.85.967 0 2.117-.3 3.45-.9l1.7 6.3zm16.63-25.95c2.933 0 5.516.583 7.75 1.75 2.233 1.133 3.966 2.75 5.2 4.85 1.233 2.067 1.85 4.467 1.85 7.2 0 2.767-.617 5.2-1.85 7.3-1.234 2.067-2.967 3.683-5.2 4.85-2.234 1.133-4.817 1.7-7.75 1.7-2.934 0-5.517-.567-7.75-1.7-2.234-1.167-3.967-2.783-5.2-4.85-1.2-2.1-1.8-4.533-1.8-7.3 0-2.733.6-5.133 1.8-7.2 1.233-2.1 2.966-3.717 5.2-4.85 2.233-1.167 4.816-1.75 7.75-1.75zm0 7.2c-1.734 0-3.134.617-4.2 1.85-1.067 1.233-1.6 2.85-1.6 4.85 0 2.033.533 3.667 1.6 4.9 1.066 1.233 2.466 1.85 4.2 1.85 1.766 0 3.183-.617 4.25-1.85 1.066-1.233 1.6-2.867 1.6-4.9 0-2-.55-3.617-1.65-4.85-1.067-1.233-2.467-1.85-4.2-1.85z" fill="#F0F0F0"/><defs><clipPath id="clip0"><path fill="#fff" d="M0 0h64v64H0z"/></clipPath></defs></svg>