<svg width="277" height="75" fill="none" xmlns="http://www.w3.org/2000/svg"><path d="M264.087 30.931l2.669 8.58h-5.706l3.221-8.58h-.184zm-12.193 17.98h6.488l1.518-4.386h8.19l1.519 4.386h6.487l-8.972-24.97h-6.304l-8.926 24.97zm-7.638 0h6.488v-24.97h-6.488v24.97zm-20.982-8.58c0 5.977 4.556 8.58 9.893 8.58 4.969 0 9.893-1.976 9.893-8.002 0-4.386-3.451-5.977-6.672-6.989-3.635-1.012-6.856-1.012-6.856-2.989 0-1.59 1.887-1.976 2.853-1.976 1.886 0 3.819.579 3.819 2.796h5.705c0-5.399-4.555-8.002-9.156-8.002-4.371 0-9.525 1.976-9.525 7.568 0 4.386 3.819 5.977 6.856 6.797 3.451 1.012 6.672 1.398 6.672 3.615 0 1.976-1.887 2.41-3.819 2.41-2.485 0-4.187-1.012-4.187-4h-5.706l.23.192zm-10.858-9.4l2.668 8.58h-5.705l3.221-8.58h-.184zm-11.964 17.98h6.304l1.518-4.386h8.375l1.518 4.386h6.488l-8.973-24.97h-6.487l-8.743 24.97zm-20.981 0h2.484V27.75l13.896 21.161h2.669v-24.97h-2.301v20.97l-14.08-20.728h-2.668V48.91zm-4.97 0h2.301v-24.97h-2.301v24.97zm-23.604 0h6.258v-9.978h8.19v9.978h6.12v-24.97h-6.12v8.967h-8.19v-8.725h-6.304V48.91h.046zm-1.932-15.955c0-5.592-5.154-8.966-10.077-8.966-6.856 0-11.411 5.592-11.411 12.581 0 6.797 4.555 12.389 11.411 12.389 5.705 0 10.077-3.616 10.491-9.979h-5.706c-.368 2.989-1.886 4.58-4.785 4.58-3.819 0-5.338-3.616-5.338-6.99 0-3.615 1.519-7.182 5.338-7.182 2.485 0 4.371 1.205 4.555 3.615h5.706-.184v-.048zM107.646 48.91h19.417v-5.59h-13.344v-4.773h11.825v-5.013h-11.411v-4.579h12.562v-4.772h-19.049V48.91zm-1.933-24.97H85.698v5.592h7.04V48.91h6.303V29.533h7.04v-5.591h-.368z" fill="#000"/><path d="M48.152 33.342c.552.385 1.15 0 .966-.82l-3.037-5.591h-1.15L25.88 62.264c-.782.819-1.886.819-2.3 0l-6.488-11.376-.368-1.591v-9.978c0-1.012-.368-1.59-.966-1.976L.529 23.363c-.966-.578-.552-1.976.782-1.976h27.24l6.671 4.001c.368.386.368.82 0 1.012l-2.669 5.206c0 .386-.368.579-.552.386l-5.337-2.989-1.15-.385h-7.086c-.552 0-.783.82-.368 1.205l4.785 4c.552.58.782 1.399.782 1.977v13.16c0 .819.966 1.012 1.335.385l19.83-35.911c.369-.579 1.887-.579 1.887 0l20.384 36.923c.966 1.206-.368 2.41-1.519 1.977l-23.65-14.558c-.368 0-.552-.578-.368-.82l2.853-5.012c0-.386.552-.386.966-.386l2.853 1.977v-.193h-.046z" fill="#E10000"/></svg>